<svg width="94" height="27" viewBox="0 0 94 27" fill="none" xmlns="http://www.w3.org/2000/svg">
<path d="M90.8316 27H3.35203C1.53407 27 0 25.557 0 23.8031V3.24544C0 1.49156 1.53407 -1.07288e-06 3.35203 -1.07288e-06H90.8316C92.6483 -1.07288e-06 94 1.49156 94 3.24544V23.8031C94 25.557 92.6022 27 90.7857 27H90.8316Z" fill="#B2B1B1"/>
<path d="M93.5054 23.8037C93.5054 25.2282 92.3106 26.3818 90.8324 26.3818H3.35206C1.87458 26.3818 0.675537 25.2282 0.675537 23.8037V3.24492C0.675537 1.82123 1.87458 0.663606 3.35206 0.663606H90.8316C92.3106 0.663606 93.5048 1.82123 93.5048 3.24492V23.8037H93.5054Z" fill="#040606"/>
<path d="M21.0609 13.3813C21.0403 11.2121 22.9005 10.1564 22.9857 10.107C21.9323 8.6241 20.2992 8.4213 19.7257 8.40555C18.3539 8.26654 17.0242 9.19797 16.3252 9.19797C15.6128 9.19797 14.5366 8.41932 13.3777 8.4424C11.886 8.46473 10.4897 9.2986 9.72413 10.5935C8.14447 13.234 9.32273 17.1147 10.836 19.2491C11.5931 20.2942 12.4779 21.4616 13.6358 21.4203C14.7688 21.375 15.192 20.7228 16.5595 20.7228C17.9144 20.7228 18.3115 21.4203 19.4928 21.394C20.7086 21.375 21.4746 20.3441 22.205 19.2893C23.0799 18.0909 23.4313 16.9109 23.4453 16.8504C23.4171 16.8412 21.084 15.9821 21.0609 13.3813" fill="white"/>
<path d="M18.8295 7.00178C19.4386 6.26584 19.8555 5.26516 19.7398 4.24909C18.8578 4.28697 17.7547 4.83784 17.1199 5.55803C16.5581 6.19197 16.0559 7.23147 16.1857 8.20872C17.1763 8.27963 18.1936 7.72609 18.8295 7.00178Z" fill="white"/>
<path d="M34.7456 17.5355L33.9608 15.1967C33.878 14.9574 33.7221 14.3947 33.4927 13.5089H33.4651C33.3734 13.8903 33.2264 14.4525 33.0246 15.1967L32.2538 17.5355H34.7456ZM37.4574 21.2705H35.8744L35.007 18.6391H31.9924L31.1662 21.2705H29.6245L32.6115 12.3129H34.4564L37.4574 21.2705" fill="white"/>
<path d="M43.6246 18.014C43.6246 17.3856 43.478 16.8669 43.1841 16.4593C42.8627 16.0341 42.4314 15.8211 41.8901 15.8211C41.5232 15.8211 41.1901 15.9395 40.8922 16.1734C40.5937 16.4088 40.3987 16.7164 40.307 17.0976C40.261 17.2752 40.2383 17.4211 40.2383 17.5355V18.6122C40.2383 19.0822 40.3874 19.4785 40.6856 19.802C40.9839 20.1254 41.3717 20.2872 41.8489 20.2872C42.4086 20.2872 42.8446 20.0787 43.1566 19.6626C43.4685 19.2458 43.6246 18.6964 43.6246 18.014V18.014ZM45.1389 17.9614C45.1389 19.0598 44.8315 19.9281 44.2168 20.5658C43.6658 21.1332 42.9821 21.4165 42.1655 21.4165C41.2845 21.4165 40.6512 21.1107 40.2659 20.4995H40.2383V23.9019H38.7516V16.938C38.7516 16.2471 38.7329 15.5385 38.6964 14.8115H40.0041L40.0868 15.8349H40.1144C40.61 15.0639 41.3624 14.6786 42.3719 14.6786C43.1614 14.6786 43.8198 14.9797 44.3475 15.5818C44.8752 16.1853 45.1389 16.978 45.1389 17.9614Z" fill="white"/>
<path d="M51.3199 18.014C51.3199 17.3856 51.1729 16.8669 50.8787 16.4593C50.5574 16.0341 50.1271 15.8211 49.585 15.8211C49.2174 15.8211 48.8851 15.9395 48.5869 16.1734C48.2886 16.4088 48.0942 16.7164 48.0024 17.0976C47.9567 17.2752 47.9336 17.4211 47.9336 17.5355V18.6122C47.9336 19.0822 48.0828 19.4785 48.3799 19.802C48.6782 20.1254 49.0663 20.2872 49.5442 20.2872C50.104 20.2872 50.5396 20.0787 50.8515 19.6626C51.1634 19.2458 51.3199 18.6964 51.3199 18.014V18.014ZM52.8342 17.9614C52.8342 19.0598 52.5264 19.9281 51.9109 20.5658C51.3607 21.1332 50.6773 21.4165 49.8602 21.4165C48.9791 21.4165 48.3459 21.1107 47.9608 20.4995H47.9336V23.9019H46.4469V16.938C46.4469 16.2471 46.428 15.5385 46.3917 14.8115H47.6994L47.7821 15.8349H47.8097C48.3049 15.0639 49.0567 14.6786 50.0672 14.6786C50.8556 14.6786 51.5147 14.9797 52.043 15.5818C52.5701 16.1853 52.8342 16.978 52.8342 17.9614" fill="white"/>
<path d="M61.438 18.7588C61.438 19.5206 61.1641 20.1405 60.6141 20.619C60.0093 21.1423 59.1678 21.4033 58.0866 21.4033C57.0885 21.4033 56.2876 21.2171 55.6816 20.8451L56.0262 19.6487C56.6785 20.03 57.3948 20.2205 58.1752 20.2205C58.7349 20.2205 59.1705 20.0983 59.4838 19.8545C59.7957 19.6106 59.9509 19.284 59.9509 18.8758C59.9509 18.5122 59.8229 18.2058 59.5656 17.9574C59.3094 17.7089 58.8819 17.4782 58.2855 17.2645C56.6609 16.6795 55.8492 15.823 55.8492 14.6957C55.8492 13.9594 56.1338 13.3557 56.703 12.8853C57.2709 12.415 58.028 12.1796 58.9746 12.1796C59.8188 12.1796 60.5201 12.3216 61.0798 12.605L60.7079 13.7747C60.1851 13.5003 59.5941 13.3626 58.9322 13.3626C58.4094 13.3626 58.0008 13.4868 57.7081 13.7349C57.4603 13.9565 57.3364 14.2263 57.3364 14.5458C57.3364 14.9001 57.4779 15.1926 57.7625 15.4227C58.0103 15.6356 58.4597 15.8657 59.1121 16.1142C59.9101 16.4245 60.497 16.7874 60.8742 17.2034C61.25 17.6202 61.438 18.1388 61.438 18.7588" fill="white"/>
<path d="M66.3525 15.888H64.7143V19.0243C64.7143 19.8217 65.0029 20.2205 65.5817 20.2205C65.8472 20.2205 66.0678 20.1982 66.2422 20.1542L66.283 21.2441C65.9903 21.35 65.6048 21.4033 65.1268 21.4033C64.5399 21.4033 64.081 21.2302 63.7502 20.8852C63.4206 20.5395 63.2544 19.959 63.2544 19.1439V15.888H62.2781V14.8114H63.2544V13.6284L64.7143 13.2031V14.8114H66.3525V15.888" fill="white"/>
<path d="M72.2026 18.0344C72.2026 17.4388 72.0705 16.928 71.8037 16.5014C71.4918 15.9861 71.0464 15.7284 70.469 15.7284C69.8712 15.7284 69.4178 15.9861 69.1058 16.5014C68.839 16.928 68.7069 17.4474 68.7069 18.0613C68.7069 18.6569 68.839 19.1676 69.1058 19.5936C69.4273 20.1088 69.8767 20.3667 70.4554 20.3667C71.0233 20.3667 71.4687 20.1044 71.7899 19.5805C72.0651 19.1453 72.2026 18.6293 72.2026 18.0344V18.0344ZM73.7455 17.9877C73.7455 18.9803 73.4512 19.7954 72.8643 20.4331C72.2488 21.0891 71.4318 21.4165 70.4131 21.4165C69.4313 21.4165 68.6496 21.1022 68.0668 20.4731C67.484 19.8441 67.1926 19.0506 67.1926 18.0942C67.1926 17.0931 67.4923 16.2734 68.094 15.6357C68.6947 14.9975 69.505 14.6786 70.5234 14.6786C71.5054 14.6786 72.295 14.9928 72.8917 15.6226C73.4609 16.234 73.7455 17.022 73.7455 17.9877Z" fill="white"/>
<path d="M78.577 16.0735C78.43 16.0472 78.2735 16.0341 78.1086 16.0341C77.5858 16.0341 77.1812 16.2248 76.8967 16.606C76.6489 16.9426 76.525 17.3679 76.525 17.8813V21.2705H75.0392L75.0528 16.8453C75.0528 16.1005 75.0338 15.4228 74.9971 14.8115H76.2921L76.3465 16.0472H76.3875C76.544 15.6227 76.7918 15.2808 77.1309 15.0245C77.4619 14.7937 77.82 14.6786 78.2053 14.6786C78.3428 14.6786 78.4667 14.6879 78.577 14.705V16.0735" fill="white"/>
<path d="M83.8076 17.3633C83.8171 16.938 83.7204 16.5706 83.519 16.2602C83.2615 15.8613 82.8666 15.6621 82.3343 15.6621C81.848 15.6621 81.4531 15.8566 81.1507 16.2471C80.9029 16.5574 80.7559 16.9295 80.7109 17.3633H83.8076ZM85.2252 17.7354C85.2252 17.9924 85.2075 18.2093 85.1708 18.3862H80.7109C80.7287 19.0244 80.9437 19.5121 81.3578 19.8487C81.7336 20.1498 82.2197 20.3004 82.8163 20.3004C83.4767 20.3004 84.0785 20.1983 84.6206 19.9946L84.8535 20.9911C84.2201 21.2573 83.4726 21.3901 82.6107 21.3901C81.573 21.3901 80.7586 21.0958 80.1663 20.506C79.5753 19.9171 79.2783 19.1262 79.2783 18.1337C79.2783 17.1595 79.5535 16.3484 80.1049 15.7016C80.6823 15.0107 81.4627 14.6655 82.4446 14.6655C83.4087 14.6655 84.1385 15.0107 84.6342 15.7016C85.0277 16.2511 85.2252 16.9295 85.2252 17.7354" fill="white"/>
<path d="M33.4832 6.8212C33.4832 6.30745 33.3422 5.9137 33.0604 5.6392C32.7784 5.36508 32.3673 5.22801 31.826 5.22801C31.5958 5.22801 31.3997 5.2432 31.2375 5.27377V8.56441C31.3274 8.57759 31.4923 8.58411 31.7312 8.58411C32.2904 8.58411 32.7219 8.43396 33.0264 8.13351C33.3308 7.83314 33.4832 7.3957 33.4832 6.8212V6.8212ZM34.2539 6.80151C34.2539 7.59389 34.0082 8.19014 33.5166 8.59071C33.061 8.96043 32.4143 9.14551 31.576 9.14551C31.1608 9.14551 30.8046 9.12809 30.5071 9.09329V4.76433C30.8951 4.70358 31.3138 4.67301 31.7654 4.67301C32.5632 4.67301 33.1653 4.84064 33.571 5.17589C34.0259 5.55445 34.2539 6.09633 34.2539 6.80151Z" fill="white"/>
<path d="M37.5807 7.51703C37.5807 7.22453 37.5153 6.97347 37.3846 6.76403C37.2313 6.51072 37.0129 6.38415 36.7289 6.38415C36.4355 6.38415 36.2121 6.51072 36.0589 6.76403C35.9282 6.97347 35.8629 7.22884 35.8629 7.52978C35.8629 7.82265 35.9282 8.07334 36.0589 8.28319C36.217 8.53617 36.4374 8.66273 36.7221 8.66273C37.0012 8.66273 37.2199 8.5339 37.3778 8.27652C37.5133 8.06265 37.5807 7.80953 37.5807 7.51703V7.51703ZM38.3386 7.49397C38.3386 7.98166 38.1943 8.38206 37.9055 8.69532C37.6033 9.01772 37.2022 9.17871 36.7017 9.17871C36.2189 9.17871 35.8349 9.02425 35.5483 8.71502C35.2624 8.40608 35.1193 8.01634 35.1193 7.54628C35.1193 7.05447 35.2663 6.65191 35.5619 6.33841C35.8575 6.02491 36.255 5.86834 36.7555 5.86834C37.2383 5.86834 37.6256 6.02284 37.9191 6.33184C38.1983 6.63222 38.3386 7.01959 38.3386 7.49397Z" fill="white"/>
<path d="M43.8163 5.93325L42.7881 9.10645H42.1189L41.6926 7.72856C41.5844 7.38488 41.4966 7.04306 41.4284 6.7035H41.4156C41.3523 7.05188 41.2643 7.39369 41.1513 7.72856L40.6986 9.10645H40.0217L39.0549 5.93325H39.806L40.1777 7.4415C40.2676 7.79831 40.3418 8.13788 40.401 8.45994H40.414C40.4684 8.19469 40.5583 7.85719 40.685 7.44788L41.1513 5.93325H41.7466L42.193 7.41544C42.3014 7.77656 42.3892 8.12494 42.4566 8.45994H42.477C42.5267 8.13356 42.6009 7.78556 42.7003 7.41544L43.0993 5.93325H43.8163" fill="white"/>
<path d="M47.6041 9.10645H46.8734V7.28925C46.8734 6.72919 46.6528 6.44906 46.211 6.44906C45.9944 6.44906 45.8188 6.52613 45.6833 6.68025C45.5485 6.83438 45.4805 7.01569 45.4805 7.22419V9.10645H44.7499V6.84094C44.7499 6.56213 44.7409 6.25988 44.7233 5.93325H45.3653L45.3993 6.429H45.4197C45.505 6.27525 45.6316 6.14738 45.7984 6.04613C45.9965 5.92744 46.2178 5.868 46.4609 5.868C46.768 5.868 47.0226 5.96363 47.2255 6.15525C47.4782 6.39019 47.6041 6.74081 47.6041 7.20638V9.10645Z" fill="white"/>
<path d="M49.6192 9.10645H48.8892V4.47713H49.6192V9.10645Z" fill="white"/>
<path d="M53.1625 7.51703C53.1625 7.22453 53.097 6.97347 52.9663 6.76403C52.8139 6.51072 52.5946 6.38415 52.3114 6.38415C52.0172 6.38415 51.7938 6.51072 51.6414 6.76403C51.5107 6.97347 51.4452 7.22884 51.4452 7.52978C51.4452 7.82265 51.5107 8.07334 51.6414 8.28319C51.7993 8.53617 52.0199 8.66273 52.3046 8.66273C52.5837 8.66273 52.8016 8.5339 52.9595 8.27652C53.0957 8.06265 53.1625 7.80953 53.1625 7.51703V7.51703ZM53.9209 7.49397C53.9209 7.98166 53.7766 8.38206 53.488 8.69532C53.1856 9.01772 52.784 9.17871 52.2842 9.17871C51.8006 9.17871 51.4167 9.02425 51.1308 8.71502C50.8447 8.40608 50.7018 8.01634 50.7018 7.54628C50.7018 7.05447 50.8488 6.65191 51.1444 6.33841C51.4398 6.02491 51.8374 5.86834 52.3373 5.86834C52.8207 5.86834 53.2073 6.02284 53.5016 6.33184C53.7807 6.63222 53.9209 7.01959 53.9209 7.49397Z" fill="white"/>
<path d="M56.6988 8.01634V7.52678C55.8926 7.51366 55.4896 7.72703 55.4896 8.16653C55.4896 8.33211 55.5359 8.45603 55.6299 8.53887C55.7239 8.62135 55.8437 8.66273 55.9866 8.66273C56.1474 8.66273 56.2972 8.61381 56.4333 8.51588C56.5708 8.41787 56.6553 8.293 56.6866 8.14047C56.6947 8.10559 56.6988 8.06434 56.6988 8.01634V8.01634ZM57.4574 9.10679H56.801L56.7464 8.74124H56.7262C56.5015 9.03282 56.1814 9.17871 55.766 9.17871C55.4557 9.17871 55.2049 9.08284 55.0158 8.89116C54.8441 8.71729 54.7584 8.50174 54.7584 8.2449C54.7584 7.85753 54.9258 7.56165 55.2622 7.3569C55.5986 7.15253 56.0711 7.05222 56.6798 7.05653V6.99765C56.6798 6.5799 56.4524 6.37103 55.9975 6.37103C55.6734 6.37103 55.3875 6.44941 55.141 6.60597L54.9925 6.14247C55.2976 5.95965 55.6747 5.86834 56.1201 5.86834C56.9793 5.86834 57.4097 6.30578 57.4097 7.18084V8.34955C57.4097 8.66704 57.4262 8.91981 57.4574 9.10679" fill="white"/>
<path d="M60.8524 7.76847V7.23934C60.8524 7.14784 60.8456 7.07397 60.8318 7.01734C60.791 6.84784 60.7025 6.70515 60.5677 6.58984C60.4316 6.47453 60.2682 6.41659 60.0789 6.41659C59.8066 6.41659 59.5927 6.52122 59.4362 6.73009C59.2808 6.93916 59.2018 7.20672 59.2018 7.53315C59.2018 7.84665 59.2768 8.10147 59.4265 8.29733C59.5846 8.506 59.7984 8.61051 60.0653 8.61051C60.3049 8.61051 60.497 8.52334 60.6427 8.34955C60.7829 8.18847 60.8524 7.99459 60.8524 7.76847ZM61.6095 9.10679H60.9614L60.9272 8.5974H60.9068C60.6998 8.98485 60.3471 9.17871 59.8514 9.17871C59.4552 9.17871 59.1257 9.02858 58.8642 8.72813C58.6028 8.42777 58.4719 8.03828 58.4719 7.55941C58.4719 7.04566 58.6137 6.62997 58.8982 6.31234C59.1732 6.01628 59.511 5.86834 59.9128 5.86834C60.3539 5.86834 60.6631 6.01197 60.8388 6.29922H60.8524V4.47747H61.5836V8.25154C61.5836 8.56056 61.5918 8.84547 61.6095 9.10679" fill="white"/>
<path d="M67.1015 7.51703C67.1015 7.22453 67.0362 6.97347 66.9055 6.76403C66.7515 6.51072 66.5336 6.38415 66.2491 6.38415C65.9562 6.38415 65.7328 6.51072 65.579 6.76403C65.4483 6.97347 65.3831 7.22884 65.3831 7.52978C65.3831 7.82265 65.4483 8.07334 65.579 8.28319C65.7371 8.53617 65.9575 8.66273 66.2423 8.66273C66.5213 8.66273 66.7406 8.5339 66.8985 8.27652C67.0335 8.06265 67.1015 7.80953 67.1015 7.51703V7.51703ZM67.8585 7.49397C67.8585 7.98166 67.7142 8.38206 67.4256 8.69532C67.1232 9.01772 66.7229 9.17871 66.2219 9.17871C65.7398 9.17871 65.3557 9.02425 65.0684 8.71502C64.7823 8.40608 64.6394 8.01634 64.6394 7.54628C64.6394 7.05447 64.7864 6.65191 65.082 6.33841C65.3776 6.02491 65.7752 5.86834 66.2763 5.86834C66.7583 5.86834 67.1465 6.02284 67.4392 6.33184C67.7183 6.63222 67.8585 7.01959 67.8585 7.49397Z" fill="white"/>
<path d="M71.7872 9.10645H71.0574V7.28925C71.0574 6.72919 70.8368 6.44906 70.3941 6.44906C70.1776 6.44906 70.002 6.52613 69.8672 6.68025C69.7322 6.83438 69.6643 7.01569 69.6643 7.22419V9.10645H68.9331V6.84094C68.9331 6.56213 68.9249 6.25988 68.9072 5.93325H69.5485L69.5825 6.429H69.6031C69.6887 6.27525 69.8154 6.14738 69.9816 6.04613C70.1803 5.92744 70.4009 5.868 70.6447 5.868C70.9511 5.868 71.2058 5.96363 71.4087 6.15525C71.662 6.39019 71.7872 6.74081 71.7872 7.20638V9.10645" fill="white"/>
<path d="M76.7045 6.46201H75.8999V8.00307C75.8999 8.39491 76.0428 8.59077 76.326 8.59077C76.4567 8.59077 76.5657 8.57992 76.6515 8.55796L76.6705 9.09335C76.5262 9.14557 76.3369 9.17188 76.1027 9.17188C75.8141 9.17188 75.5893 9.08677 75.4272 8.91721C75.2638 8.74721 75.1834 8.4623 75.1834 8.06195V6.46201H74.7028V5.93326H75.1834V5.35201L75.8999 5.14332V5.93326H76.7045V6.46201Z" fill="white"/>
<path d="M80.5733 9.10645H79.8421V7.30238C79.8421 6.73331 79.6214 6.44906 79.1802 6.44906C78.8413 6.44906 78.6098 6.61425 78.483 6.94406C78.4612 7.01344 78.449 7.09819 78.449 7.19813V9.10645H77.7191V4.47713H78.449V6.38963H78.4626C78.6927 6.042 79.0223 5.868 79.45 5.868C79.7522 5.868 80.0027 5.96363 80.2016 6.15525C80.4494 6.3945 80.5733 6.74944 80.5733 7.2195V9.10645" fill="white"/>
<path d="M83.8661 7.18733C83.8716 6.97826 83.824 6.79752 83.7246 6.64527C83.5979 6.44933 83.4047 6.35145 83.1431 6.35145C82.9048 6.35145 82.7102 6.44708 82.5616 6.6387C82.4404 6.79133 82.3684 6.97395 82.3452 7.18733H83.8661ZM84.5634 7.36995C84.5634 7.49614 84.554 7.60264 84.5362 7.68983H82.3452C82.3548 8.00333 82.4596 8.24258 82.6624 8.40792C82.8477 8.55615 83.0873 8.63014 83.3802 8.63014C83.7042 8.63014 83.9998 8.58017 84.2666 8.47999L84.381 8.96968C84.0691 9.10013 83.7028 9.16553 83.2781 9.16553C82.7686 9.16553 82.3684 9.02095 82.0782 8.73135C81.7869 8.44183 81.6426 8.05339 81.6426 7.56589C81.6426 7.08702 81.7774 6.68858 82.0483 6.37095C82.3316 6.03139 82.7142 5.8617 83.1976 5.8617C83.6702 5.8617 84.0297 6.03139 84.272 6.37095C84.4668 6.64095 84.5634 6.97395 84.5634 7.36995" fill="white"/>
</svg>
