<svg width="94" height="27" viewBox="0 0 94 27" fill="none" xmlns="http://www.w3.org/2000/svg">
<g clip-path="url(#clip0)">
<path d="M90.5444 26.9541H3.5441C1.63139 26.9541 0.0643311 25.4398 0.0643311 23.5908V3.41163C0.0643311 1.56242 1.63139 0.0481213 3.5441 0.0481213H90.5444C92.4573 0.0481213 94.0244 1.56242 94.0244 3.41163V23.5908C94.0244 25.4398 92.4573 26.9541 90.5444 26.9541Z" fill="black"/>
<path d="M90.5444 0.047631H3.5441C1.63139 0.047631 0.0643311 1.56193 0.0643311 3.41114V23.5903C0.0643311 25.4393 1.63139 26.9536 3.5441 26.9536H90.5444C92.4573 26.9536 94.0244 25.4393 94.0244 23.5903V3.41114C94.0244 1.56193 92.4573 0.047631 90.5444 0.047631ZM90.5444 0.586674C92.1555 0.586674 93.4663 1.85376 93.4663 3.41114V23.5903C93.4663 25.1477 92.1555 26.4148 90.5444 26.4148H3.5441C1.93317 26.4148 0.622457 25.1477 0.622457 23.5903V3.41114C0.622457 1.85376 1.93317 0.586674 3.5441 0.586674H90.5444Z" fill="#A6A6A6"/>
<path d="M33.067 6.93873C33.067 7.50036 32.8927 7.94979 32.5504 8.28528C32.1556 8.68319 31.6423 8.8833 31.0139 8.8833C30.4123 8.8833 29.899 8.67975 29.478 8.27877C29.0564 7.87166 28.8455 7.37226 28.8455 6.775C28.8455 6.17679 29.0564 5.67777 29.478 5.27392C29.899 4.86949 30.4123 4.66594 31.0139 4.66594C31.3128 4.66594 31.5983 4.72549 31.8709 4.83694C32.1421 4.94839 32.3632 5.09947 32.5232 5.28656L32.1597 5.6412C31.8805 5.32237 31.5 5.16515 31.0139 5.16515C30.5751 5.16515 30.1947 5.31375 29.872 5.61209C29.5526 5.911 29.3926 6.29896 29.3926 6.775C29.3926 7.25028 29.5526 7.64149 29.872 7.9406C30.1947 8.23626 30.5751 8.38734 31.0139 8.38734C31.479 8.38734 31.8709 8.23626 32.1795 7.93715C32.3828 7.73973 32.4987 7.46705 32.5293 7.11911H31.0139V6.63368H33.0359C33.0596 6.73862 33.067 6.83992 33.067 6.93873Z" fill="white"/>
<path d="M33.067 6.93873C33.067 7.50036 32.8927 7.94979 32.5504 8.28528C32.1556 8.68319 31.6423 8.8833 31.0139 8.8833C30.4123 8.8833 29.899 8.67975 29.478 8.27877C29.0564 7.87166 28.8455 7.37226 28.8455 6.775C28.8455 6.17679 29.0564 5.67777 29.478 5.27392C29.899 4.86949 30.4123 4.66594 31.0139 4.66594C31.3128 4.66594 31.5983 4.72549 31.8709 4.83694C32.1421 4.94839 32.3632 5.09947 32.5232 5.28656L32.1597 5.6412C31.8805 5.32237 31.5 5.16515 31.0139 5.16515C30.5751 5.16515 30.1947 5.31375 29.872 5.61209C29.5526 5.911 29.3926 6.29896 29.3926 6.775C29.3926 7.25028 29.5526 7.64149 29.872 7.9406C30.1947 8.23626 30.5751 8.38734 31.0139 8.38734C31.479 8.38734 31.8709 8.23626 32.1795 7.93715C32.3828 7.73973 32.4987 7.46705 32.5293 7.11911H31.0139V6.63368H33.0359C33.0596 6.73862 33.067 6.83992 33.067 6.93873Z" stroke="white" stroke-width="0.213333" stroke-miterlimit="10"/>
<path d="M36.2743 5.25355H34.3751V6.53193H36.0879V7.01793H34.3751V8.29612H36.2743V8.7915H33.8381V4.75893H36.2743V5.25355Z" fill="white"/>
<path d="M36.2743 5.25355H34.3751V6.53193H36.0879V7.01793H34.3751V8.29612H36.2743V8.7915H33.8381V4.75893H36.2743V5.25355Z" stroke="white" stroke-width="0.213333" stroke-miterlimit="10"/>
<path d="M38.5384 8.7915H38.0006V5.25355H36.8358V4.75893H39.704V5.25355H38.5384V8.7915Z" fill="white"/>
<path d="M38.5384 8.7915H38.0006V5.25355H36.8358V4.75893H39.704V5.25355H38.5384V8.7915Z" stroke="white" stroke-width="0.213333" stroke-miterlimit="10"/>
<path d="M41.7802 4.75893H42.3163V8.7915H41.7802V4.75893Z" fill="white" stroke="white" stroke-width="0.213333" stroke-miterlimit="10"/>
<path d="M44.6959 8.7915H44.163V5.25355H42.9933V4.75893H45.8656V5.25355H44.6959V8.7915Z" fill="white"/>
<path d="M44.6959 8.7915H44.163V5.25355H42.9933V4.75893H45.8656V5.25355H44.6959V8.7915Z" stroke="white" stroke-width="0.213333" stroke-miterlimit="10"/>
<path d="M48.6312 7.9339C48.941 8.23626 49.3174 8.38734 49.7663 8.38734C50.2118 8.38734 50.5923 8.23626 50.898 7.9339C51.207 7.63211 51.3639 7.24434 51.3639 6.775C51.3639 6.3049 51.207 5.91694 50.898 5.61534C50.5923 5.31355 50.2118 5.1617 49.7663 5.1617C49.3174 5.1617 48.941 5.31355 48.6312 5.61534C48.322 5.91694 48.1653 6.3049 48.1653 6.775C48.1653 7.24434 48.322 7.63211 48.6312 7.9339ZM51.2959 8.27207C50.8845 8.67975 50.3743 8.8833 49.7663 8.8833C49.1547 8.8833 48.6447 8.67975 48.2333 8.27207C47.823 7.86496 47.6182 7.36575 47.6182 6.775C47.6182 6.18349 47.823 5.68409 48.2333 5.27698C48.6447 4.86949 49.1547 4.66594 49.7663 4.66594C50.3712 4.66594 50.881 4.86949 51.2926 5.28043C51.7062 5.69098 51.9111 6.18675 51.9111 6.775C51.9111 7.36575 51.7062 7.86496 51.2959 8.27207" fill="white"/>
<path d="M48.6312 7.9339C48.941 8.23626 49.3174 8.38734 49.7663 8.38734C50.2118 8.38734 50.5923 8.23626 50.898 7.9339C51.207 7.63211 51.3639 7.24434 51.3639 6.775C51.3639 6.3049 51.207 5.91694 50.898 5.61534C50.5923 5.31355 50.2118 5.1617 49.7663 5.1617C49.3174 5.1617 48.941 5.31355 48.6312 5.61534C48.322 5.91694 48.1653 6.3049 48.1653 6.775C48.1653 7.24434 48.322 7.63211 48.6312 7.9339ZM51.2959 8.27207C50.8845 8.67975 50.3743 8.8833 49.7663 8.8833C49.1547 8.8833 48.6447 8.67975 48.2333 8.27207C47.823 7.86496 47.6182 7.36575 47.6182 6.775C47.6182 6.18349 47.823 5.68409 48.2333 5.27698C48.6447 4.86949 49.1547 4.66594 49.7663 4.66594C50.3712 4.66594 50.881 4.86949 51.2926 5.28043C51.7062 5.69098 51.9111 6.18675 51.9111 6.775C51.9111 7.36575 51.7062 7.86496 51.2959 8.27207V8.27207Z" stroke="white" stroke-width="0.213333" stroke-miterlimit="10"/>
<path d="M52.6653 8.7915V4.75893H53.3182L55.3468 7.89495H55.3699L55.3468 7.11942V4.75893H55.8832V8.7915H55.3231L53.1989 5.50019H53.1752L53.1989 6.27859V8.7915H52.6653Z" fill="white"/>
<path d="M52.6653 8.7915V4.75893H53.3182L55.3468 7.89495H55.3699L55.3468 7.11942V4.75893H55.8832V8.7915H55.3231L53.1989 5.50019H53.1752L53.1989 6.27859V8.7915H52.6653Z" stroke="white" stroke-width="0.213333" stroke-miterlimit="10"/>
<path d="M74.49 20.2279H75.7917V11.8194H74.49V20.2279ZM86.1907 14.8482L84.6988 18.4936H84.6542L83.1116 14.8482H81.712L84.0295 19.9422L82.7072 22.7759H84.0635L87.635 14.8482H86.1907ZM78.8229 19.2718C78.3983 19.2718 77.8063 19.0684 77.8063 18.5596C77.8063 17.9086 78.5442 17.6593 79.1828 17.6593C79.7544 17.6593 80.0223 17.7807 80.3693 17.9419C80.2677 18.7201 79.5739 19.2718 78.8229 19.2718V19.2718ZM78.9793 14.664C78.0417 14.664 77.066 15.0644 76.6652 15.9514L77.8172 16.4182C78.0646 15.9514 78.5209 15.8003 79.0024 15.8003C79.6765 15.8003 80.3592 16.1907 80.3693 16.8816V16.9699C80.1347 16.8385 79.6316 16.6444 79.0132 16.6444C77.7724 16.6444 76.5085 17.304 76.5085 18.5359C76.5085 19.663 77.5251 20.3884 78.6668 20.3884C79.5402 20.3884 80.0223 20.0071 80.3253 19.5644H80.3693V20.2139H81.6231V16.989C81.6231 15.4979 80.4712 14.664 78.9793 14.664V14.664ZM70.9553 15.8725H69.1068V12.989H70.9553C71.9242 12.989 72.4775 13.7669 72.4775 14.4306C72.4775 15.0809 71.9242 15.8725 70.9553 15.8725ZM70.9214 11.8194H67.8082V20.2279H69.1068V17.0421H70.9214C72.3629 17.0421 73.7766 16.0337 73.7766 14.4306C73.7766 12.828 72.3596 11.8194 70.9214 11.8194V11.8194ZM53.9526 19.2752C53.0557 19.2752 52.3051 18.5499 52.3051 17.5507C52.3051 16.5421 53.0557 15.8068 53.9526 15.8068C54.837 15.8068 55.534 16.5421 55.534 17.5507C55.534 18.5499 54.837 19.2752 53.9526 19.2752V19.2752ZM55.4417 15.3175H55.3977C55.1055 14.9828 54.5481 14.6805 53.8416 14.6805C52.3593 14.6805 51.0039 15.9381 51.0039 17.5507C51.0039 19.1538 52.3593 20.4018 53.8416 20.4018C54.5481 20.4018 55.1055 20.0967 55.3977 19.7519H55.4417V20.1624C55.4417 21.2562 54.837 21.8437 53.8619 21.8437C53.0665 21.8437 52.573 21.2887 52.3695 20.8221L51.2378 21.2788C51.564 22.0375 52.4277 22.9702 53.8619 22.9702C55.3877 22.9702 56.6753 22.103 56.6753 19.9912V14.8541H55.4417V15.3175ZM57.573 20.2279H58.8749V11.8194H57.573V20.2279ZM60.7909 17.4524C60.7572 16.3493 61.678 15.7844 62.337 15.7844C62.8538 15.7844 63.2925 16.0337 63.4382 16.391L60.7909 17.4524ZM64.8284 16.4998C64.5836 15.86 63.8295 14.6805 62.2928 14.6805C60.77 14.6805 59.5027 15.8393 59.5027 17.5413C59.5027 19.1439 60.7572 20.4018 62.4387 20.4018C63.7989 20.4018 64.5836 19.6008 64.9061 19.1339L63.8974 18.4842C63.5602 18.9595 63.1017 19.2752 62.4387 19.2752C61.7803 19.2752 61.3077 18.9834 61.0053 18.4078L64.9645 16.8253L64.8276 16.4998H64.8284ZM33.2941 15.5569V16.7729H36.298C36.2099 17.4525 35.9753 17.9519 35.6152 18.2998C35.1765 18.7201 34.4936 19.187 33.2941 19.187C31.4451 19.187 29.9975 17.745 29.9975 15.9583C29.9975 14.1711 31.4451 12.7292 33.2941 12.7292C34.2937 12.7292 35.0214 13.107 35.5576 13.5964L36.4445 12.7397C35.6931 12.0469 34.6946 11.5144 33.2941 11.5144C30.7589 11.5144 28.6284 13.5083 28.6284 15.9583C28.6284 18.4078 30.7589 20.4018 33.2941 20.4018C34.6638 20.4018 35.6931 19.968 36.5029 19.1538C37.3315 18.3528 37.5898 17.2259 37.5898 16.3162C37.5898 16.0337 37.5653 15.7739 37.522 15.5569H33.2941ZM41.0059 19.2752C40.1082 19.2752 39.3338 18.5596 39.3338 17.5413C39.3338 16.5096 40.1082 15.8068 41.0059 15.8068C41.903 15.8068 42.6746 16.5096 42.6746 17.5413C42.6746 18.5596 41.903 19.2752 41.0059 19.2752ZM41.0059 14.6805C39.3677 14.6805 38.0353 15.8824 38.0353 17.5413C38.0353 19.187 39.3677 20.4018 41.0059 20.4018C42.6426 20.4018 43.9757 19.187 43.9757 17.5413C43.9757 15.8824 42.6426 14.6805 41.0059 14.6805ZM47.486 19.2752C46.5891 19.2752 45.8173 18.5596 45.8173 17.5413C45.8173 16.5096 46.5891 15.8068 47.486 15.8068C48.3831 15.8068 49.1582 16.5096 49.1582 17.5413C49.1582 18.5596 48.3831 19.2752 47.486 19.2752ZM47.486 14.6805C45.8512 14.6805 44.5162 15.8824 44.5162 17.5413C44.5162 19.187 45.8512 20.4018 47.486 20.4018C49.1241 20.4018 50.4599 19.187 50.4599 17.5413C50.4599 15.8824 49.1241 14.6805 47.486 14.6805Z" fill="white"/>
<path d="M7.32705 5.11974C7.12299 5.32655 7.00452 5.64826 7.00452 6.06532V20.9408C7.00452 21.3579 7.12299 21.6801 7.32705 21.8871L7.37797 21.9321L16.0029 13.6V13.403L7.37797 5.07073L7.32705 5.11974Z" fill="url(#paint0_linear)"/>
<path d="M16.0028 13.4029V13.5999L18.8745 16.3784L18.9423 16.3426L22.3476 14.4737C23.3191 13.9386 23.3191 13.0639 22.3476 12.5329L18.9423 10.6605L18.878 10.624L16.0028 13.4029Z" fill="url(#paint1_linear)"/>
<path d="M7.32703 21.8871C7.64976 22.2144 8.17616 22.2544 8.77482 21.926L18.9423 16.3427L16.0028 13.5018L7.32703 21.8871Z" fill="url(#paint2_linear)"/>
<path d="M7.32703 5.11989L16.0028 13.502L18.9423 10.6608L8.77482 5.07681C8.49439 4.92476 8.22982 4.85257 7.99462 4.85257C7.7277 4.85257 7.49858 4.94545 7.32703 5.11989" fill="url(#paint3_linear)"/>
</g>
<defs>
<linearGradient id="paint0_linear" x1="15.2369" y1="21.0968" x2="3.95474" y2="9.42285" gradientUnits="userSpaceOnUse">
<stop stop-color="#00A0FF"/>
<stop offset="0.0066" stop-color="#00A1FF"/>
<stop offset="0.2601" stop-color="#00BEFF"/>
<stop offset="0.5122" stop-color="#00D2FF"/>
<stop offset="0.7604" stop-color="#00DFFF"/>
<stop offset="1" stop-color="#00E3FF"/>
</linearGradient>
<linearGradient id="paint1_linear" x1="23.6138" y1="13.5011" x2="6.77303" y2="13.5011" gradientUnits="userSpaceOnUse">
<stop stop-color="#FFE000"/>
<stop offset="0.4087" stop-color="#FFBD00"/>
<stop offset="0.7754" stop-color="#FFA500"/>
<stop offset="1" stop-color="#FF9C00"/>
</linearGradient>
<linearGradient id="paint2_linear" x1="11.5371" y1="17.5707" x2="-3.75819" y2="1.7443" gradientUnits="userSpaceOnUse">
<stop stop-color="#FF3A44"/>
<stop offset="1" stop-color="#C31162"/>
</linearGradient>
<linearGradient id="paint3_linear" x1="-0.662353" y1="21.2244" x2="6.16889" y2="14.156" gradientUnits="userSpaceOnUse">
<stop stop-color="#32A071"/>
<stop offset="0.0685" stop-color="#2DA771"/>
<stop offset="0.4762" stop-color="#15CF74"/>
<stop offset="0.8009" stop-color="#06E775"/>
<stop offset="1" stop-color="#00F076"/>
</linearGradient>
<clipPath id="clip0">
<rect width="94" height="27" fill="white"/>
</clipPath>
</defs>
</svg>
